# xmcd
#
# Track frame offsets:
#	150
#	20795
#	37709
#	55231
#	73074
#	88817
#	102365
#	121575
#	133233
#	147702
#	169783
#	185120
#	204021
#	221249
#	239448
#	255731
#	274781
#	296064
#	314524
#
# Disc length: 4419 seconds
#
# Revision: 0
# Processed by: cddbd v1.5PL3 Copyright (c) Steve Scherf et al.
# Submitted via: audiograbber 1.82.01
#
DISCID=2f114113
DTITLE=The Shadows - Life Story - The very Best Of - CDTwo
DYEAR=2004
DGENRE=Instrumental
TTITLE0=Mountains of the Moon
TTITLE1=Moonlight Shaddow
TTITLE2=You Win Again
TTITLE3=Memory
TTITLE4=I Guess That's Why They Call It The Blues
TTITLE5=Thing-Me-Jig
TTITLE6=Life Story
TTITLE7=Johnny Stacatto
TTITLE8=Summer Love 59
TTITLE9=Turning Point
TTITLE10=This Ole House
TTITLE11=Chariots Of Fire
TTITLE12=Crockett's Theme
TTITLE13=Midnight Creepin'
TTITLE14=Going Home
TTITLE15=Every Breath You Take
TTITLE16=Africa
TTITLE17=Walk of Life
TTITLE18=Dancing in the Dark
EXTD=
EXTT0=
EXTT1=
EXTT2=
EXTT3=
EXTT4=
EXTT5=
EXTT6=
EXTT7=
EXTT8=
EXTT9=
EXTT10=
EXTT11=
EXTT12=
EXTT13=
EXTT14=
EXTT15=
EXTT16=
EXTT17=
EXTT18=
PLAYORDER=
